# Blender 4.4.0
# www.blender.org
mtllib MarioKartFrontW.mtl
o F2_Item_Kart_Mario_S.002
v -0.300040 0.209802 -0.186512
v -0.173236 0.209800 -0.313316
v -0.300040 -0.209490 -0.186512
v -0.173236 -0.209490 -0.313316
v -0.346452 0.209802 -0.013298
v -0.346452 -0.209490 -0.013298
v -0.300040 0.209802 0.159918
v -0.300040 -0.209490 0.159918
v -0.173238 0.209802 0.286722
v -0.173238 -0.209490 0.286722
v -0.000020 0.209802 0.333134
v -0.000020 -0.209490 0.333136
v 0.173194 0.209802 0.286722
v -0.000020 0.209802 0.333134
v 0.173194 -0.209490 0.286722
v -0.000020 -0.209490 0.333136
v 0.299998 0.209802 0.159918
v 0.299998 -0.209490 0.159918
v 0.346412 0.209802 -0.013298
v 0.346412 -0.209490 -0.013298
v 0.299998 0.209802 -0.186512
v 0.299998 -0.209490 -0.186512
v 0.173196 0.209800 -0.313316
v 0.173196 -0.209490 -0.313316
v -0.000020 0.209800 -0.359728
v -0.000020 -0.209492 -0.359728
v -0.173236 -0.209490 -0.313316
v -0.000020 -0.259316 -0.013298
v -0.300040 -0.209490 -0.186512
v -0.346452 -0.209490 -0.013298
v -0.300040 -0.209490 0.159918
v -0.173238 -0.209490 0.286722
v 0.173194 -0.209490 0.286722
v 0.299998 -0.209490 0.159918
v 0.299998 -0.209490 -0.186512
v 0.173196 -0.209490 -0.313316
v -0.000020 -0.209492 -0.359728
v -0.000020 -0.209490 0.333136
v 0.346412 -0.209490 -0.013298
v -0.000916 0.251560 -0.014734
v 0.000142 0.209802 0.333134
v 0.173360 0.209802 0.286722
v 0.300162 0.209802 0.159918
v 0.346574 0.209802 -0.013298
v -0.173072 0.209802 0.286722
v -0.299876 0.209802 0.159918
v -0.346290 0.209802 -0.013298
v -0.299876 0.209802 -0.186512
v -0.173074 0.209800 -0.313316
v 0.000142 0.209800 -0.359728
v 0.173358 0.209800 -0.313316
v 0.300162 0.209802 -0.186512
vn -0.8660 -0.0000 -0.5000
vn -0.5000 -0.0000 -0.8660
vn -1.0000 -0.0000 -0.0000
vn -0.8660 -0.0000 0.5000
vn -0.5000 -0.0000 0.8660
vn -0.2588 -0.0000 0.9659
vn -0.0000 -0.0000 -1.0000
vn 0.5000 -0.0000 -0.8660
vn 0.8660 -0.0000 -0.5000
vn 1.0000 -0.0000 -0.0000
vn 0.8660 -0.0000 0.5000
vn 0.5000 -0.0000 0.8660
vn 0.2588 -0.0000 0.9659
vn -0.0712 -0.9898 -0.1233
vn -0.0000 -1.0000 -0.0000
vn -0.1233 -0.9898 -0.0712
vn -0.0000 -0.9898 -0.1424
vn 0.0712 -0.9898 -0.1233
vn 0.1233 -0.9898 -0.0712
vn 0.1424 -0.9898 -0.0000
vn 0.1233 -0.9898 0.0712
vn 0.0712 -0.9898 0.1233
vn -0.0000 -0.9898 0.1424
vn -0.0712 -0.9898 0.1233
vn -0.1233 -0.9898 0.0712
vn -0.1424 -0.9898 -0.0000
vn -0.0004 1.0000 -0.0005
vn -0.0000 0.9929 0.1192
vn 0.0595 0.9929 0.1031
vn 0.1031 0.9929 0.0596
vn 0.1193 0.9929 0.0001
vn 0.1036 0.9928 -0.0597
vn 0.0600 0.9928 -0.1038
vn -0.0000 0.9928 -0.1202
vn -0.0601 0.9927 -0.1042
vn -0.1041 0.9927 -0.0601
vn -0.1200 0.9928 0.0001
vn -0.1037 0.9928 0.0599
vn -0.0596 0.9928 0.1035
vt 1.319540 -1.011870
vt 1.819940 -1.011870
vt 1.319490 -0.532995
vt 0.816721 -0.532995
vt 0.816766 -1.011870
vt 0.314113 -0.532995
vt 0.314158 -1.011870
vt -0.188416 -0.532995
vt -0.188372 -1.011870
vt -0.690830 -0.532995
vt -0.690786 -1.011870
vt 1.819900 -0.532995
vt 2.318390 -1.011870
vt 2.318340 -0.532995
vt 2.815520 -1.011870
vt 2.815480 -0.532995
vt 3.311550 -1.011870
vt 3.311500 -0.532995
vt 3.806820 -1.011870
vt 3.806780 -0.532995
vt 4.301540 -1.011870
vt 4.301500 -0.532995
vt 4.795580 -1.011870
vt 4.795530 -0.532995
vt 5.299250 -1.011870
vt 5.299210 -0.532995
vt 0.721872 0.560165
vt 0.493151 0.760519
vt 0.889309 0.644845
vt 0.493150 0.529170
vt 0.264427 0.560165
vt 0.096992 0.644845
vt 0.035705 0.760519
vt 0.096992 0.876194
vt 0.264428 0.960874
vt 0.493151 0.991869
vt 0.721873 0.960874
vt 0.889309 0.876194
vt 0.950596 0.760519
vt 0.497661 1.000270
vt 0.730909 0.968065
vt 0.901658 0.880077
vt 0.964157 0.759882
vt 0.901658 0.639688
vt 0.730908 0.551700
vt 0.497660 0.519494
vt 0.264412 0.551700
vt 0.093664 0.639688
vt 0.031164 0.759882
vt 0.093664 0.880077
vt 0.264412 0.968065
s 1
usemtl mt_Kart_Mario_Tire_S.008
f 1/1/1 2/2/2 3/3/1
f 1/1/1 3/3/1 6/4/3
f 5/5/3 1/1/1 6/4/3
f 5/5/3 6/4/3 8/6/4
f 7/7/4 5/5/3 8/6/4
f 7/7/4 8/6/4 10/8/5
f 9/9/5 7/7/4 10/8/5
f 9/9/5 10/8/5 12/10/6
f 11/11/6 9/9/5 12/10/6
f 2/2/2 4/12/2 3/3/1
f 2/2/2 25/13/7 4/12/2
f 25/13/7 26/14/7 4/12/2
f 25/13/7 23/15/8 26/14/7
f 23/15/8 24/16/8 26/14/7
f 23/15/8 21/17/9 24/16/8
f 21/17/9 22/18/9 24/16/8
f 21/17/9 19/19/10 22/18/9
f 19/19/10 20/20/10 22/18/9
f 19/19/10 17/21/11 20/20/10
f 17/21/11 18/22/11 20/20/10
f 17/21/11 13/23/12 18/22/11
f 13/23/12 15/24/12 18/22/11
f 13/23/12 14/25/13 15/24/12
f 14/25/13 16/26/13 15/24/12
f 27/27/14 28/28/15 29/29/16
f 28/28/15 27/27/14 37/30/17
f 37/30/17 36/31/18 28/28/15
f 35/32/19 28/28/15 36/31/18
f 39/33/20 28/28/15 35/32/19
f 34/34/21 28/28/15 39/33/20
f 33/35/22 28/28/15 34/34/21
f 38/36/23 28/28/15 33/35/22
f 32/37/24 28/28/15 38/36/23
f 31/38/25 28/28/15 32/37/24
f 31/38/25 30/39/26 28/28/15
f 30/39/26 29/29/16 28/28/15
f 40/28/27 41/40/28 42/41/29
f 43/42/30 40/28/27 42/41/29
f 43/42/30 44/43/31 40/28/27
f 40/28/27 44/43/31 52/44/32
f 51/45/33 40/28/27 52/44/32
f 51/45/33 50/46/34 40/28/27
f 40/28/27 50/46/34 49/47/35
f 40/28/27 49/47/35 48/48/36
f 48/48/36 47/49/37 40/28/27
f 40/28/27 47/49/37 46/50/38
f 46/50/38 45/51/39 40/28/27
f 45/51/39 41/40/28 40/28/27
